<svg width="19" height="18" viewBox="0 0 19 18" fill="none" xmlns="http://www.w3.org/2000/svg">
<path d="M13.2559 11.2549H12.4659L12.1859 10.9849C13.1997 9.80891 13.757 8.30758 13.7559 6.75489C13.7559 5.46931 13.3746 4.2126 12.6604 3.14368C11.9462 2.07476 10.931 1.24164 9.7433 0.749669C8.55558 0.257699 7.24865 0.128977 5.98777 0.379781C4.7269 0.630585 3.56871 1.24965 2.65967 2.15869C1.75063 3.06773 1.13156 4.22592 0.880758 5.4868C0.629954 6.74767 0.758676 8.05461 1.25065 9.24233C1.74261 10.43 2.57574 11.4452 3.64466 12.1594C4.71358 12.8737 5.97028 13.2549 7.25586 13.2549C8.86586 13.2549 10.3459 12.6649 11.4859 11.6849L11.7559 11.9649V12.7549L16.7559 17.7449L18.2459 16.2549L13.2559 11.2549ZM7.25586 11.2549C4.76586 11.2549 2.75586 9.24489 2.75586 6.75489C2.75586 4.26489 4.76586 2.25489 7.25586 2.25489C9.74586 2.25489 11.7559 4.26489 11.7559 6.75489C11.7559 9.24489 9.74586 11.2549 7.25586 11.2549Z" fill="black"/>
</svg>
